<mxfile host="app.diagrams.net" modified="2024-05-28T16:37:18.495Z" agent="Mozilla/5.0 (Macintosh; Intel Mac OS X 10_15_7) AppleWebKit/537.36 (KHTML, like Gecko) Chrome/124.0.0.0 Safari/537.36" etag="gnY_EQMF2O8TASVaY4Rf" version="24.4.6" type="device">
  <diagram name="Page-1" id="BTbwwkdLSnDxbevNjmIQ">
    <mxGraphModel dx="1593" dy="846" grid="1" gridSize="10" guides="1" tooltips="1" connect="1" arrows="1" fold="1" page="1" pageScale="1" pageWidth="1169" pageHeight="1654" math="0" shadow="0">
      <root>
        <mxCell id="0" />
        <mxCell id="1" parent="0" />
        <mxCell id="CcyPMsc8jHvGXGtmvJJg-1" value="Customer" style="swimlane;fontStyle=1;align=center;verticalAlign=top;childLayout=stackLayout;horizontal=1;startSize=26;horizontalStack=0;resizeParent=1;resizeParentMax=0;resizeLast=0;collapsible=1;marginBottom=0;whiteSpace=wrap;html=1;" vertex="1" parent="1">
          <mxGeometry x="150" y="240" width="160" height="110" as="geometry" />
        </mxCell>
        <mxCell id="CcyPMsc8jHvGXGtmvJJg-2" value="- name: String&lt;div&gt;- wallet: int&lt;br&gt;&lt;/div&gt;" style="text;strokeColor=none;fillColor=none;align=left;verticalAlign=top;spacingLeft=4;spacingRight=4;overflow=hidden;rotatable=0;points=[[0,0.5],[1,0.5]];portConstraint=eastwest;whiteSpace=wrap;html=1;" vertex="1" parent="CcyPMsc8jHvGXGtmvJJg-1">
          <mxGeometry y="26" width="160" height="34" as="geometry" />
        </mxCell>
        <mxCell id="CcyPMsc8jHvGXGtmvJJg-3" value="" style="line;strokeWidth=1;fillColor=none;align=left;verticalAlign=middle;spacingTop=-1;spacingLeft=3;spacingRight=3;rotatable=0;labelPosition=right;points=[];portConstraint=eastwest;strokeColor=inherit;" vertex="1" parent="CcyPMsc8jHvGXGtmvJJg-1">
          <mxGeometry y="60" width="160" height="8" as="geometry" />
        </mxCell>
        <mxCell id="CcyPMsc8jHvGXGtmvJJg-4" value="+ pay(int amount): void&lt;div&gt;+ canAfford: boolean&lt;/div&gt;" style="text;strokeColor=none;fillColor=none;align=left;verticalAlign=top;spacingLeft=4;spacingRight=4;overflow=hidden;rotatable=0;points=[[0,0.5],[1,0.5]];portConstraint=eastwest;whiteSpace=wrap;html=1;" vertex="1" parent="CcyPMsc8jHvGXGtmvJJg-1">
          <mxGeometry y="68" width="160" height="42" as="geometry" />
        </mxCell>
        <mxCell id="CcyPMsc8jHvGXGtmvJJg-14" value="&lt;span style=&quot;font-weight: 400;&quot;&gt;«Interface»&lt;/span&gt;&lt;br style=&quot;font-weight: 400;&quot;&gt;&lt;b&gt;Bookable&lt;/b&gt;" style="swimlane;fontStyle=1;align=center;verticalAlign=middle;childLayout=stackLayout;horizontal=1;startSize=29;horizontalStack=0;resizeParent=1;resizeParentMax=0;resizeLast=0;collapsible=0;marginBottom=0;html=1;whiteSpace=wrap;" vertex="1" parent="1">
          <mxGeometry x="390" y="300" width="140" height="140" as="geometry" />
        </mxCell>
        <mxCell id="CcyPMsc8jHvGXGtmvJJg-15" value="+ book(Customer): void" style="text;html=1;strokeColor=none;fillColor=none;align=center;verticalAlign=middle;spacingLeft=4;spacingRight=4;overflow=hidden;rotatable=0;points=[[0,0.5],[1,0.5]];portConstraint=eastwest;whiteSpace=wrap;" vertex="1" parent="CcyPMsc8jHvGXGtmvJJg-14">
          <mxGeometry y="29" width="140" height="25" as="geometry" />
        </mxCell>
        <mxCell id="CcyPMsc8jHvGXGtmvJJg-16" value="&lt;span style=&quot;text-align: center;&quot;&gt;+ cancel(Customer): void&lt;/span&gt;" style="text;html=1;strokeColor=none;fillColor=none;align=left;verticalAlign=middle;spacingLeft=4;spacingRight=4;overflow=hidden;rotatable=0;points=[[0,0.5],[1,0.5]];portConstraint=eastwest;whiteSpace=wrap;" vertex="1" parent="CcyPMsc8jHvGXGtmvJJg-14">
          <mxGeometry y="54" width="140" height="36" as="geometry" />
        </mxCell>
        <mxCell id="CcyPMsc8jHvGXGtmvJJg-17" value="+ getPrice(): int&lt;div&gt;+ hasCapacity(): boolean&lt;/div&gt;" style="text;html=1;strokeColor=none;fillColor=none;align=left;verticalAlign=middle;spacingLeft=4;spacingRight=4;overflow=hidden;rotatable=0;points=[[0,0.5],[1,0.5]];portConstraint=eastwest;whiteSpace=wrap;" vertex="1" parent="CcyPMsc8jHvGXGtmvJJg-14">
          <mxGeometry y="90" width="140" height="50" as="geometry" />
        </mxCell>
        <mxCell id="CcyPMsc8jHvGXGtmvJJg-22" value="TravelAgent" style="swimlane;fontStyle=1;align=center;verticalAlign=top;childLayout=stackLayout;horizontal=1;startSize=26;horizontalStack=0;resizeParent=1;resizeParentMax=0;resizeLast=0;collapsible=1;marginBottom=0;whiteSpace=wrap;html=1;" vertex="1" parent="1">
          <mxGeometry x="110" y="460" width="160" height="100" as="geometry" />
        </mxCell>
        <mxCell id="CcyPMsc8jHvGXGtmvJJg-25" value="+ makeBooking(Bookable, Customer): void&lt;div&gt;+ cancelBooking(Bookable, Customer): void&lt;div&gt;&lt;br&gt;&lt;/div&gt;&lt;/div&gt;" style="text;strokeColor=none;fillColor=none;align=left;verticalAlign=top;spacingLeft=4;spacingRight=4;overflow=hidden;rotatable=0;points=[[0,0.5],[1,0.5]];portConstraint=eastwest;whiteSpace=wrap;html=1;" vertex="1" parent="CcyPMsc8jHvGXGtmvJJg-22">
          <mxGeometry y="26" width="160" height="74" as="geometry" />
        </mxCell>
        <mxCell id="CcyPMsc8jHvGXGtmvJJg-26" value="Train" style="swimlane;fontStyle=1;align=center;verticalAlign=top;childLayout=stackLayout;horizontal=1;startSize=26;horizontalStack=0;resizeParent=1;resizeParentMax=0;resizeLast=0;collapsible=1;marginBottom=0;whiteSpace=wrap;html=1;" vertex="1" parent="1">
          <mxGeometry x="570" y="510" width="160" height="90" as="geometry" />
        </mxCell>
        <mxCell id="CcyPMsc8jHvGXGtmvJJg-27" value="- price: int&lt;div&gt;- capacity: int&lt;br&gt;&lt;div&gt;- customers: ArrayList&amp;lt;Customer&amp;gt;&lt;/div&gt;&lt;/div&gt;" style="text;strokeColor=none;fillColor=none;align=left;verticalAlign=top;spacingLeft=4;spacingRight=4;overflow=hidden;rotatable=0;points=[[0,0.5],[1,0.5]];portConstraint=eastwest;whiteSpace=wrap;html=1;" vertex="1" parent="CcyPMsc8jHvGXGtmvJJg-26">
          <mxGeometry y="26" width="160" height="64" as="geometry" />
        </mxCell>
        <mxCell id="CcyPMsc8jHvGXGtmvJJg-50" value="BedAndBreakfast" style="swimlane;fontStyle=1;align=center;verticalAlign=top;childLayout=stackLayout;horizontal=1;startSize=26;horizontalStack=0;resizeParent=1;resizeParentMax=0;resizeLast=0;collapsible=1;marginBottom=0;whiteSpace=wrap;html=1;" vertex="1" parent="1">
          <mxGeometry x="360" y="560" width="160" height="70" as="geometry" />
        </mxCell>
        <mxCell id="CcyPMsc8jHvGXGtmvJJg-51" value="- price: int&lt;div&gt;- customer: Customer&lt;/div&gt;" style="text;strokeColor=none;fillColor=none;align=left;verticalAlign=top;spacingLeft=4;spacingRight=4;overflow=hidden;rotatable=0;points=[[0,0.5],[1,0.5]];portConstraint=eastwest;whiteSpace=wrap;html=1;" vertex="1" parent="CcyPMsc8jHvGXGtmvJJg-50">
          <mxGeometry y="26" width="160" height="44" as="geometry" />
        </mxCell>
        <mxCell id="CcyPMsc8jHvGXGtmvJJg-55" value="&amp;lt;&amp;lt;Activity&amp;gt;&amp;gt;" style="swimlane;fontStyle=1;align=center;verticalAlign=top;childLayout=stackLayout;horizontal=1;startSize=26;horizontalStack=0;resizeParent=1;resizeParentMax=0;resizeLast=0;collapsible=1;marginBottom=0;whiteSpace=wrap;html=1;" vertex="1" parent="1">
          <mxGeometry x="520" y="20" width="160" height="120" as="geometry" />
        </mxCell>
        <mxCell id="CcyPMsc8jHvGXGtmvJJg-56" value="- date : DateTime&lt;div&gt;&lt;br&gt;&lt;/div&gt;" style="text;strokeColor=none;fillColor=none;align=left;verticalAlign=top;spacingLeft=4;spacingRight=4;overflow=hidden;rotatable=0;points=[[0,0.5],[1,0.5]];portConstraint=eastwest;whiteSpace=wrap;html=1;" vertex="1" parent="CcyPMsc8jHvGXGtmvJJg-55">
          <mxGeometry y="26" width="160" height="26" as="geometry" />
        </mxCell>
        <mxCell id="CcyPMsc8jHvGXGtmvJJg-57" value="" style="line;strokeWidth=1;fillColor=none;align=left;verticalAlign=middle;spacingTop=-1;spacingLeft=3;spacingRight=3;rotatable=0;labelPosition=right;points=[];portConstraint=eastwest;strokeColor=inherit;" vertex="1" parent="CcyPMsc8jHvGXGtmvJJg-55">
          <mxGeometry y="52" width="160" height="8" as="geometry" />
        </mxCell>
        <mxCell id="CcyPMsc8jHvGXGtmvJJg-58" value="+ DateTime getDate()" style="text;strokeColor=none;fillColor=none;align=left;verticalAlign=top;spacingLeft=4;spacingRight=4;overflow=hidden;rotatable=0;points=[[0,0.5],[1,0.5]];portConstraint=eastwest;whiteSpace=wrap;html=1;" vertex="1" parent="CcyPMsc8jHvGXGtmvJJg-55">
          <mxGeometry y="60" width="160" height="60" as="geometry" />
        </mxCell>
        <mxCell id="CcyPMsc8jHvGXGtmvJJg-60" style="edgeStyle=orthogonalEdgeStyle;rounded=0;orthogonalLoop=1;jettySize=auto;html=1;exitX=1;exitY=0.5;exitDx=0;exitDy=0;entryX=0;entryY=0.163;entryDx=0;entryDy=0;entryPerimeter=0;dashed=1;" edge="1" parent="1" source="CcyPMsc8jHvGXGtmvJJg-15" target="CcyPMsc8jHvGXGtmvJJg-55">
          <mxGeometry relative="1" as="geometry" />
        </mxCell>
        <mxCell id="CcyPMsc8jHvGXGtmvJJg-61" style="edgeStyle=orthogonalEdgeStyle;rounded=0;orthogonalLoop=1;jettySize=auto;html=1;exitX=1;exitY=0.5;exitDx=0;exitDy=0;entryX=0.125;entryY=-0.056;entryDx=0;entryDy=0;entryPerimeter=0;dashed=1;" edge="1" parent="1" source="CcyPMsc8jHvGXGtmvJJg-17" target="CcyPMsc8jHvGXGtmvJJg-26">
          <mxGeometry relative="1" as="geometry" />
        </mxCell>
        <mxCell id="CcyPMsc8jHvGXGtmvJJg-62" style="edgeStyle=orthogonalEdgeStyle;rounded=0;orthogonalLoop=1;jettySize=auto;html=1;exitX=0;exitY=0.5;exitDx=0;exitDy=0;entryX=0.188;entryY=-0.014;entryDx=0;entryDy=0;entryPerimeter=0;dashed=1;" edge="1" parent="1" source="CcyPMsc8jHvGXGtmvJJg-17" target="CcyPMsc8jHvGXGtmvJJg-50">
          <mxGeometry relative="1" as="geometry" />
        </mxCell>
        <mxCell id="CcyPMsc8jHvGXGtmvJJg-67" value="FiveAside" style="swimlane;fontStyle=1;align=center;verticalAlign=top;childLayout=stackLayout;horizontal=1;startSize=26;horizontalStack=0;resizeParent=1;resizeParentMax=0;resizeLast=0;collapsible=1;marginBottom=0;whiteSpace=wrap;html=1;" vertex="1" parent="1">
          <mxGeometry x="840" y="180" width="160" height="86" as="geometry" />
        </mxCell>
        <mxCell id="CcyPMsc8jHvGXGtmvJJg-68" value="+ team: String" style="text;strokeColor=none;fillColor=none;align=left;verticalAlign=top;spacingLeft=4;spacingRight=4;overflow=hidden;rotatable=0;points=[[0,0.5],[1,0.5]];portConstraint=eastwest;whiteSpace=wrap;html=1;" vertex="1" parent="CcyPMsc8jHvGXGtmvJJg-67">
          <mxGeometry y="26" width="160" height="26" as="geometry" />
        </mxCell>
        <mxCell id="CcyPMsc8jHvGXGtmvJJg-69" value="" style="line;strokeWidth=1;fillColor=none;align=left;verticalAlign=middle;spacingTop=-1;spacingLeft=3;spacingRight=3;rotatable=0;labelPosition=right;points=[];portConstraint=eastwest;strokeColor=inherit;" vertex="1" parent="CcyPMsc8jHvGXGtmvJJg-67">
          <mxGeometry y="52" width="160" height="8" as="geometry" />
        </mxCell>
        <mxCell id="CcyPMsc8jHvGXGtmvJJg-70" value="+ method(type):&amp;nbsp;" style="text;strokeColor=none;fillColor=none;align=left;verticalAlign=top;spacingLeft=4;spacingRight=4;overflow=hidden;rotatable=0;points=[[0,0.5],[1,0.5]];portConstraint=eastwest;whiteSpace=wrap;html=1;" vertex="1" parent="CcyPMsc8jHvGXGtmvJJg-67">
          <mxGeometry y="60" width="160" height="26" as="geometry" />
        </mxCell>
        <mxCell id="CcyPMsc8jHvGXGtmvJJg-76" style="edgeStyle=orthogonalEdgeStyle;rounded=0;orthogonalLoop=1;jettySize=auto;html=1;exitX=0.25;exitY=0;exitDx=0;exitDy=0;entryX=1;entryY=0.5;entryDx=0;entryDy=0;" edge="1" parent="1" source="CcyPMsc8jHvGXGtmvJJg-72" target="CcyPMsc8jHvGXGtmvJJg-58">
          <mxGeometry relative="1" as="geometry" />
        </mxCell>
        <mxCell id="CcyPMsc8jHvGXGtmvJJg-72" value="PaintBalling" style="swimlane;fontStyle=1;align=center;verticalAlign=top;childLayout=stackLayout;horizontal=1;startSize=26;horizontalStack=0;resizeParent=1;resizeParentMax=0;resizeLast=0;collapsible=1;marginBottom=0;whiteSpace=wrap;html=1;" vertex="1" parent="1">
          <mxGeometry x="640" y="264" width="160" height="86" as="geometry" />
        </mxCell>
        <mxCell id="CcyPMsc8jHvGXGtmvJJg-73" value="+ team: String" style="text;strokeColor=none;fillColor=none;align=left;verticalAlign=top;spacingLeft=4;spacingRight=4;overflow=hidden;rotatable=0;points=[[0,0.5],[1,0.5]];portConstraint=eastwest;whiteSpace=wrap;html=1;" vertex="1" parent="CcyPMsc8jHvGXGtmvJJg-72">
          <mxGeometry y="26" width="160" height="26" as="geometry" />
        </mxCell>
        <mxCell id="CcyPMsc8jHvGXGtmvJJg-74" value="" style="line;strokeWidth=1;fillColor=none;align=left;verticalAlign=middle;spacingTop=-1;spacingLeft=3;spacingRight=3;rotatable=0;labelPosition=right;points=[];portConstraint=eastwest;strokeColor=inherit;" vertex="1" parent="CcyPMsc8jHvGXGtmvJJg-72">
          <mxGeometry y="52" width="160" height="8" as="geometry" />
        </mxCell>
        <mxCell id="CcyPMsc8jHvGXGtmvJJg-75" value="+ method(type): type" style="text;strokeColor=none;fillColor=none;align=left;verticalAlign=top;spacingLeft=4;spacingRight=4;overflow=hidden;rotatable=0;points=[[0,0.5],[1,0.5]];portConstraint=eastwest;whiteSpace=wrap;html=1;" vertex="1" parent="CcyPMsc8jHvGXGtmvJJg-72">
          <mxGeometry y="60" width="160" height="26" as="geometry" />
        </mxCell>
        <mxCell id="CcyPMsc8jHvGXGtmvJJg-77" style="edgeStyle=orthogonalEdgeStyle;rounded=0;orthogonalLoop=1;jettySize=auto;html=1;exitX=0;exitY=0.5;exitDx=0;exitDy=0;entryX=1.013;entryY=0.186;entryDx=0;entryDy=0;entryPerimeter=0;" edge="1" parent="1" source="CcyPMsc8jHvGXGtmvJJg-68" target="CcyPMsc8jHvGXGtmvJJg-55">
          <mxGeometry relative="1" as="geometry" />
        </mxCell>
        <mxCell id="CcyPMsc8jHvGXGtmvJJg-78" value="extends" style="text;html=1;align=center;verticalAlign=middle;whiteSpace=wrap;rounded=0;" vertex="1" parent="1">
          <mxGeometry x="630" y="206" width="60" height="30" as="geometry" />
        </mxCell>
        <mxCell id="CcyPMsc8jHvGXGtmvJJg-79" value="extends" style="text;html=1;align=center;verticalAlign=middle;whiteSpace=wrap;rounded=0;" vertex="1" parent="1">
          <mxGeometry x="760" y="150" width="60" height="30" as="geometry" />
        </mxCell>
      </root>
    </mxGraphModel>
  </diagram>
</mxfile>
